<?xml version="1.0" encoding="UTF-8" standalone="no"?>
<svg width="140px" height="54px" viewBox="0 0 140 54" version="1.1" xmlns="http://www.w3.org/2000/svg" xmlns:xlink="http://www.w3.org/1999/xlink">
    <!-- Generator: Sketch 46.2 (44496) - http://www.bohemiancoding.com/sketch -->
    <title>audible_logo_inverse</title>
    <desc>Created with Sketch.</desc>
    <defs></defs>
    <g id="Page-1" stroke="none" stroke-width="1" fill="none" fill-rule="evenodd">
        <g id="audible_logo_inverse">
            <g id="Group">
                <path d="M3.45364005,48.4750354 C3.09340098,48.4750354 2.79448368,48.3873986 2.55687918,48.2121224 C2.31927469,48.0368462 2.20047422,47.7929872 2.20047422,47.4805383 C2.20047422,46.8708818 2.65268245,46.5355758 3.55711246,46.4746101 L5.22416792,46.3660156 L5.22416792,46.9318502 C5.22416792,47.3700408 5.05650597,47.7367818 4.72117705,48.0320841 C4.38584812,48.3273865 3.96334002,48.4750354 3.45364005,48.4750354 L3.45364005,48.4750354 Z M3.2696891,49.3380761 C3.6835808,49.3380761 4.05531129,49.2504393 4.38489172,49.075163 C4.71447215,48.8998868 4.97889899,48.6484073 5.17818018,48.3207169 L5.27015565,48.3207169 L5.27015565,49.2294815 L6.21290426,49.2294815 L6.21290426,45.0114419 C6.21290426,44.3713026 6.00883572,43.8692962 5.60069251,43.5054075 C5.19254931,43.1415188 4.61100187,42.9595771 3.85603275,42.9595771 C3.19687189,42.9595771 2.64310843,43.1091312 2.19472576,43.408244 C1.74634308,43.7073567 1.48958079,44.10458 1.42443117,44.5999259 L2.42466444,44.5999259 C2.49364639,44.3560633 2.65076959,44.1674536 2.89603874,44.0340913 C3.1413079,43.9007289 3.44980588,43.8340488 3.82154195,43.8340488 C4.7566306,43.8340488 5.22416792,44.2265092 5.22416792,45.0114419 L5.22416792,45.571561 L3.43639465,45.6801555 C1.93028874,45.7677936 1.17724708,46.3755358 1.17724708,47.5034003 C1.17724708,48.0673325 1.37556721,48.5140897 1.77221343,48.8436852 C2.16885964,49.1732808 2.66801321,49.3380761 3.2696891,49.3380761 L3.2696891,49.3380761 Z M8.21523046,49.2294815 L9.2039668,49.2294815 L9.2039668,45.582992 C9.2039668,45.0419219 9.35150932,44.6170739 9.64659877,44.3084353 C9.94168822,43.9997967 10.3364123,43.8454798 10.830783,43.8454798 C11.3251536,43.8454798 11.6920938,43.9788401 11.9316144,44.2455648 C12.1711351,44.5122895 12.2908936,44.9238015 12.2908936,45.480113 L12.2908936,49.2294815 L13.27963,49.2294815 L13.27963,45.240062 C13.27963,44.5084742 13.0928067,43.945503 12.7191544,43.5511315 C12.3455022,43.1567599 11.809942,42.9595771 11.1124579,42.9595771 C10.6372489,42.9595771 10.2473151,43.0548345 9.94264482,43.2453522 C9.63797454,43.4358698 9.40708009,43.7006854 9.24995454,44.0398068 L9.15797907,44.0398068 L9.15797907,43.0681717 L8.21523046,43.0681717 L8.21523046,43.6911612 L8.21523046,45.2314887 L8.21523046,47.0661645 L8.21523046,48.606492 L8.21523046,49.2294815 L8.21523046,49.2294815 Z M66.1189489,43.545416 C65.6724824,43.1548548 65.0717736,42.9595771 64.3168044,42.9595771 C63.4506977,42.9595771 62.7608886,43.2472545 62.2473563,43.8226178 C61.733824,44.3979811 61.4770617,45.1657557 61.4770617,46.1259646 C61.4770617,47.1052253 61.7347821,47.8853834 62.2502305,48.4664622 C62.765679,49.047541 63.4564462,49.3380761 64.3225529,49.3380761 C65.066025,49.3380761 65.6619435,49.1513716 66.1103262,48.777957 C66.5587088,48.4045424 66.826968,47.935876 66.9151116,47.3719438 L65.9148783,47.3719438 C65.8229024,47.7186859 65.6379952,47.9854066 65.3601512,48.1721139 C65.0823073,48.3588212 64.7345285,48.4521734 64.3168044,48.4521734 C63.7649488,48.4521734 63.3242374,48.2426072 62.994657,47.8234683 C62.6650766,47.4043295 62.5002888,46.8385006 62.5002888,46.1259646 C62.5002888,45.42867 62.6641185,44.874272 62.9917828,44.4627539 C63.319447,44.0512357 63.7611165,43.8454798 64.3168044,43.8454798 C64.7613548,43.8454798 65.1187142,43.9540732 65.3888936,44.1712633 C65.6590729,44.3884534 65.8343993,44.6494587 65.9148783,44.9542869 L66.0672127,44.9542869 L66.4149949,44.9542869 L66.7627772,44.9542869 L66.9151116,44.9542869 C66.8308003,44.4055961 66.5654154,43.9359771 66.1189489,43.545416 Z M73.1856746,48.4836087 C73.6972907,47.9139609 73.9530949,47.135708 73.9530949,46.1488266 C73.9530949,45.1581348 73.6972907,44.3789293 73.1856746,43.8111868 C72.6740585,43.2434442 71.9775428,42.9595771 71.0961068,42.9595771 C70.2146708,42.9595771 69.5181551,43.2434442 69.006539,43.8111868 C68.4949229,44.3789293 68.2391187,45.1581348 68.2391187,46.1488266 C68.2391187,47.135708 68.4949229,47.9139609 69.006539,48.4836087 C69.5181551,49.0532565 70.2146708,49.3380761 71.0961068,49.3380761 C71.9775428,49.3380761 72.6740585,49.0532565 73.1856746,48.4836087 Z M69.7394686,47.8463303 C69.4213851,47.4424329 69.2623458,46.876604 69.2623458,46.1488266 C69.2623458,45.4172388 69.4213851,44.8504573 69.7394686,44.4484651 C70.057552,44.0464729 70.5097602,43.8454798 71.0961068,43.8454798 C71.6824534,43.8454798 72.1346616,44.0464729 72.452745,44.4484651 C72.7708285,44.8504573 72.9298678,45.4172388 72.9298678,46.1488266 C72.9298678,46.876604 72.7708285,47.4424329 72.452745,47.8463303 C72.1346616,48.2502278 71.6824534,48.4521734 71.0961068,48.4521734 C70.5097602,48.4521734 70.057552,48.2502278 69.7394686,47.8463303 Z M76.6682311,49.2294815 L76.6682311,45.411527 C76.6682311,44.9771468 76.8061929,44.6075481 77.0821207,44.3027198 C77.3580485,43.9978916 77.6991208,43.8454798 78.1053478,43.8454798 C78.4962456,43.8454798 78.8095339,43.9540732 79.0452222,44.1712633 C79.2809105,44.3884534 79.3987529,44.6799411 79.3987529,45.0457349 L79.3987529,49.2294815 L80.3874893,49.2294815 L80.3874893,45.2686395 C80.3874893,44.8761731 80.5197027,44.5408671 80.7841335,44.2627113 C81.0485643,43.9845556 81.395385,43.8454798 81.8246061,43.8454798 C82.2614917,43.8454798 82.588193,43.9578835 82.8047197,44.1826943 C83.0212464,44.4075051 83.1295081,44.7466215 83.1295081,45.2000535 L83.1295081,49.2294815 L84.1182444,49.2294815 L84.1182444,44.9714334 C84.1182444,44.3236734 83.9477083,43.8264298 83.6066309,43.4796877 C83.2655534,43.1329456 82.7788548,42.9595771 82.1465202,42.9595771 C81.7172992,42.9595771 81.335988,43.0576923 81.0025753,43.2539254 C80.6691625,43.4501586 80.4181486,43.7121164 80.2495261,44.0398068 L80.1575506,44.0398068 C80.0157544,43.7197371 79.800189,43.4596845 79.5108481,43.2596409 C79.2215071,43.0595974 78.8660638,42.9595771 78.4445074,42.9595771 C78.0306157,42.9595771 77.6742143,43.053882 77.3752925,43.2424944 C77.0763707,43.4311069 76.856015,43.696875 76.7142188,44.0398068 L76.6222433,44.0398068 L76.6222433,43.0681717 L75.6794947,43.0681717 C75.6794947,43.0681717 75.6794947,43.2758328 75.6794947,43.6911612 C75.6794947,44.1064897 75.6794947,44.6199271 75.6794947,45.2314887 C75.6794947,45.8430504 75.6794947,46.4546028 75.6794947,47.0661645 C75.6794947,47.6777261 75.6794947,48.1911635 75.6794947,48.606492 C75.6794947,49.0218204 75.6794947,49.2294815 75.6794947,49.2294815 L76.6682311,49.2294815 Z M87.9572059,43.2624987 C87.6065476,43.4644474 87.331582,43.742599 87.1323008,44.0969618 L87.0403254,44.0969618 L87.0403254,43.0681717 L86.0975768,43.0681717 L86.0975768,51.2870618 L87.0863131,51.2870618 L87.0863131,48.3035704 L87.1782886,48.3035704 C87.3469111,48.6274504 87.6017573,48.8808351 87.9428347,49.063732 C88.2839121,49.246629 88.674804,49.3380761 89.115522,49.3380761 C89.9049821,49.3380761 90.5363491,49.047541 91.0096419,48.4664622 C91.4829347,47.8853834 91.7195776,47.1128459 91.7195776,46.1488266 C91.7195776,45.180997 91.4829347,44.4075069 91.0096419,43.8283333 C90.5363491,43.2491596 89.9049821,42.9595771 89.115522,42.9595771 C88.6939656,42.9595771 88.3078641,43.06055 87.9572059,43.2624987 Z M87.5519389,47.8291838 C87.2223585,47.4138554 87.0575708,46.8537419 87.0575708,46.1488266 C87.0575708,45.440101 87.2223585,44.8790349 87.5519389,44.4656116 C87.8815194,44.0521883 88.326063,43.8454798 88.8855833,43.8454798 C89.4527682,43.8454798 89.8963538,44.0493306 90.2163534,44.4570384 C90.536353,44.8647461 90.6963504,45.4286699 90.6963504,46.1488266 C90.6963504,46.8689833 90.536353,47.4329071 90.2163534,47.8406148 C89.8963538,48.2483226 89.4508521,48.4521734 88.8798348,48.4521734 C88.3241469,48.4521734 87.8815194,48.2445123 87.5519389,47.8291838 Z M94.4577076,48.2121224 C94.2201031,48.0368462 94.1013026,47.7929872 94.1013026,47.4805383 C94.1013026,46.8708818 94.5535108,46.5355758 95.4579409,46.4746101 L97.1249963,46.3660156 L97.1249963,46.9318502 C97.1249963,47.3700408 96.9573344,47.7367818 96.6220054,48.0320841 C96.2866765,48.3273865 95.8641684,48.4750354 95.3544684,48.4750354 C94.9942294,48.4750354 94.6953121,48.3873986 94.4577076,48.2121224 Z M96.2857201,49.075163 C96.6153005,48.8998868 96.8797274,48.6484073 97.0790086,48.3207169 L97.170984,48.3207169 L97.170984,49.2294815 L98.1137327,49.2294815 L98.1137327,45.0114419 C98.1137327,44.3713026 97.9096641,43.8692962 97.5015209,43.5054075 C97.0933777,43.1415188 96.5118303,42.9595771 95.7568611,42.9595771 C95.0977003,42.9595771 94.5439368,43.1091312 94.0955542,43.408244 C93.6471715,43.7073567 93.3904092,44.10458 93.3252596,44.5999259 L94.3254928,44.5999259 C94.3944748,44.3560633 94.551598,44.1674536 94.7968671,44.0340913 C95.0421363,43.9007289 95.3506343,43.8340488 95.7223703,43.8340488 C96.657459,43.8340488 97.1249963,44.2265092 97.1249963,45.0114419 L97.1249963,45.571561 L95.337223,45.6801555 C93.8311171,45.7677936 93.0780755,46.3755358 93.0780755,47.5034003 C93.0780755,48.0673325 93.2763956,48.5140897 93.6730418,48.8436852 C94.069688,49.1732808 94.5688416,49.3380761 95.1705175,49.3380761 C95.5844092,49.3380761 95.9561397,49.2504393 96.2857201,49.075163 Z M101.104795,49.2294815 L101.104795,45.582992 C101.104795,45.0419219 101.252338,44.6170739 101.547427,44.3084353 C101.842517,43.9997967 102.237241,43.8454798 102.731611,43.8454798 C103.225982,43.8454798 103.592922,43.9788401 103.832443,44.2455648 C104.071963,44.5122895 104.191722,44.9238015 104.191722,45.480113 L104.191722,49.2294815 L105.180458,49.2294815 L105.180458,45.240062 C105.180458,44.5084742 104.993635,43.945503 104.619983,43.5511315 C104.246331,43.1567599 103.71077,42.9595771 103.013286,42.9595771 C102.538077,42.9595771 102.148143,43.0548345 101.843473,43.2453522 C101.538803,43.4358698 101.307908,43.7006854 101.150783,44.0398068 L101.058807,44.0398068 L101.058807,43.0681717 L100.116059,43.0681717 L100.116059,43.6911612 L100.116059,45.2314887 L100.116059,47.0661645 L100.116059,48.606492 L100.116059,49.2294815 L101.104795,49.2294815 Z M108.731996,51.0698728 C108.431159,51.3289768 108.006734,51.4585269 107.458711,51.4585269 C107.416555,51.4585269 107.36961,51.4575743 107.317874,51.4556691 C107.266137,51.4537639 107.214401,51.4499537 107.162665,51.4442381 C107.110928,51.4385226 107.062067,51.4318546 107.016079,51.4242339 L107.016079,50.5840552 C107.077396,50.5954863 107.144461,50.6031069 107.217275,50.6069172 C107.29009,50.6107276 107.360987,50.6126328 107.429969,50.6126328 C107.713561,50.6126328 107.941581,50.5373794 108.114036,50.3868705 C108.286491,50.2363615 108.437866,49.9744037 108.568165,49.6009891 L108.683134,49.235197 L106.389496,43.0681717 L107.458711,43.0681717 L109.160257,48.1378209 L109.252233,48.1378209 L110.948031,43.0681717 L112,43.0681717 L109.579895,49.6067046 C109.315465,50.323051 109.032834,50.8107688 108.731996,51.0698728 Z M22.8034411,49.3229191 C22.7245245,49.3910751 22.6116436,49.3940384 22.5247354,49.3515644 C22.131151,49.0354786 22.0592269,48.8902768 21.8434547,48.5909831 C21.1941403,49.2261178 20.7326275,49.4187326 19.8895177,49.4187326 C18.8925703,49.4187326 18.1163898,48.8280474 18.1163898,47.6437137 C18.1163898,46.719163 18.6358413,46.0899548 19.3810545,45.7817712 C20.0253743,45.5130984 20.9224271,45.4617344 21.6087026,45.3886396 L21.6087026,45.2414622 C21.6087026,44.9708138 21.6306794,44.6488015 21.4658534,44.416676 C21.3210063,44.2062815 21.0442985,44.1193579 20.7985579,44.1193579 C20.3480336,44.1193579 19.9464576,44.3416057 19.847562,44.8009177 C19.8255852,44.9056211 19.7486664,45.0063735 19.6407803,45.0123001 L18.4929922,44.8927801 C18.3950955,44.872037 18.2862105,44.7959789 18.3151799,44.6567036 C18.5779025,43.3153148 19.8375725,42.9113178 20.9643828,42.9113178 C21.5437711,42.9113178 22.2969759,43.0604707 22.7524949,43.4792843 C23.3278874,43.9968747 23.2709475,44.6833734 23.2709475,45.438028 L23.2709475,47.2130469 C23.2709475,47.7464416 23.5037018,47.9795548 23.718475,48.2669952 C23.7943949,48.3726864 23.811377,48.4941818 23.7144793,48.57024 C23.4737334,48.765818 23.0421891,49.1243777 22.8074369,49.3258824 L22.8034411,49.3229191 Z M21.6087026,46.5482791 L21.6087026,46.3003494 C20.7496096,46.3003494 19.847562,46.4761721 19.847562,47.4471479 C19.847562,47.9410318 20.1122825,48.2739096 20.5668026,48.2739096 C20.8994514,48.2739096 21.198136,48.0753683 21.3879357,47.7563192 C21.6206899,47.3612121 21.6087026,46.9917869 21.6087026,46.5482791 Z M38.3420353,49.3229191 C38.2651166,49.3910751 38.1492389,49.3940384 38.0613317,49.3515644 C37.6697452,49.0354786 37.599819,48.8902768 37.3840468,48.5909831 C36.7337334,49.2261178 36.2732196,49.4187326 35.4291108,49.4187326 C34.4331624,49.4187326 33.6559829,48.8280474 33.6559829,47.6437137 C33.6559829,46.719163 34.1754345,46.0899548 34.9176508,45.7817712 C35.5629695,45.5130984 36.4600224,45.4617344 37.1472968,45.3886396 L37.1472968,45.2414622 C37.1472968,44.9708138 37.1702725,44.6488015 37.0034486,44.416676 C36.8615984,44.2062815 36.5828927,44.1193579 36.33915,44.1193579 C35.8866278,44.1193579 35.4850518,44.3416057 35.3871551,44.8009177 C35.3651783,44.9056211 35.2882596,45.0063735 35.1793745,45.0123001 L34.0315864,44.8927801 C33.9336897,44.872037 33.8248047,44.7959789 33.854773,44.6567036 C34.1174957,43.3153148 35.3751678,42.9113178 36.5049749,42.9113178 C37.0823653,42.9113178 37.8355701,43.0604707 38.2910891,43.4792843 C38.8644837,43.9968747 38.8125386,44.6833734 38.8125386,45.438028 L38.8125386,47.2130469 C38.8125386,47.7464416 39.043295,47.9795548 39.2590671,48.2669952 C39.333988,48.3726864 39.351969,48.4941818 39.2560703,48.57024 C39.0123276,48.765818 38.5817822,49.1243777 38.3430343,49.3258824 L38.3420353,49.3229191 Z M36.9265299,47.7563192 C37.1582852,47.3612121 37.1472968,46.9917869 37.1472968,46.5482791 L37.1472968,46.3003494 C36.2902017,46.3003494 35.3871551,46.4761721 35.3871551,47.4471479 C35.3871551,47.9410318 35.6518756,48.2739096 36.1063958,48.2739096 C36.4390445,48.2739096 36.7377292,48.0753683 36.9265299,47.7563192 Z M51.7608676,49.3387234 C51.6419931,49.331809 51.5480923,49.2419221 51.5480923,49.1283288 L51.5460944,43.280743 C51.5550849,43.1760396 51.6559784,43.0881282 51.7738539,43.0881282 L52.8706958,43.0881282 C52.9755851,43.0940548 53.0614944,43.1641864 53.0824722,43.255061 L53.0824722,44.1470154 L53.105448,44.1470154 C53.4370978,43.348899 53.9026063,42.9686083 54.7217415,42.9686083 C55.2521814,42.9686083 55.771633,43.1533209 56.1032828,43.655107 C56.4139548,44.1242967 56.4139548,44.91056 56.4139548,45.4785265 L56.4139548,49.1559863 C56.3989707,49.2587142 56.3040709,49.3387234 56.1881932,49.3387234 L54.9984493,49.3387234 C54.8895643,49.331809 54.8006582,49.2557509 54.7876719,49.1559863 L54.7876719,45.9813004 C54.7876719,45.340239 54.8635917,44.4048228 54.0474534,44.4048228 C53.7607561,44.4048228 53.4940377,44.5895354 53.3591801,44.8750003 C53.1933552,45.2305968 53.1743752,45.587181 53.1743752,45.9813004 L53.1743752,49.1283288 C53.1703794,49.2458732 53.068487,49.3387234 52.940622,49.3387234 L51.7608676,49.3387234 Z M47.9488923,42.9686083 C49.708035,42.9686083 50.6620278,44.4176638 50.6620278,46.2657775 C50.6620278,48.046723 49.6081405,49.4621944 47.9488923,49.4621944 C46.2227148,49.4621944 45.2837063,48.0101756 45.2837063,46.2005848 C45.2837063,44.3821042 46.2337032,42.9686083 47.9488923,42.9686083 Z M47.9608797,44.1618319 C47.0858036,44.1618319 47.0298627,45.3046794 47.0298627,46.01686 C47.0298627,46.7300284 47.0198732,48.2571175 47.9488923,48.2571175 C48.8659241,48.2571175 48.9098777,47.0283343 48.9098777,46.2776307 C48.9098777,45.7837468 48.8888999,45.1950371 48.7360612,44.7258474 C48.6022026,44.3198748 48.3374821,44.1618319 47.9608797,44.1618319 Z M26.0430208,49.3387234 L24.8552748,49.3387234 C24.7433929,49.331809 24.6544868,49.2488365 24.6444973,49.1470964 L24.6444973,43.3014861 C24.6444973,43.1849295 24.7483877,43.0881282 24.8742548,43.0881282 L25.9750925,43.0881282 C26.0919691,43.0950426 26.184871,43.1799906 26.1928626,43.2876573 L26.1928626,44.0492264 L26.2138404,44.0492264 C26.5035346,43.3113638 27.0419661,42.9686083 27.774193,42.9686083 C28.5164093,42.9686083 28.9819179,43.3113638 29.3135677,44.0492264 C29.599266,43.3113638 30.2525763,42.9686083 30.9498401,42.9686083 C31.4483138,42.9686083 31.9917401,43.1641864 32.3243888,43.6057186 C32.6999923,44.0986148 32.6220745,44.8137587 32.6220745,45.4400036 L32.6210756,49.1283288 C32.6210756,49.2458732 32.5171853,49.3387234 32.3913182,49.3387234 L31.207568,49.3387234 C31.0886935,49.331809 30.9957916,49.2419221 30.9957916,49.1283288 L30.9957916,46.029701 C30.9957916,45.7837468 31.0167694,45.1693552 30.9628264,44.9352542 C30.8739203,44.5421226 30.6082008,44.4305048 30.2645636,44.4305048 C29.9778663,44.4305048 29.6791817,44.6152174 29.5583093,44.91056 C29.4344401,45.2068903 29.4464274,45.697811 29.4464274,46.029701 L29.4464274,49.1283288 C29.4464274,49.2458732 29.3455339,49.3387234 29.2176689,49.3387234 L28.0319209,49.3387234 C27.9160432,49.331809 27.8221424,49.2419221 27.8221424,49.1283288 L27.8221424,46.029701 C27.8221424,45.3787619 27.9310274,44.4176638 27.0899154,44.4176638 C26.2368162,44.4176638 26.2707803,45.3540677 26.2707803,46.029701 L26.2707803,49.1283288 C26.2707803,49.2458732 26.1678889,49.3387234 26.0430208,49.3387234 Z M40.2540167,44.1223212 L40.2540167,43.2876573 C40.2540167,43.1602353 40.3539112,43.076275 40.4727857,43.076275 L44.3686724,43.076275 C44.4975363,43.076275 44.5934351,43.1622108 44.5934351,43.2866696 L44.5934351,44.0008258 C44.5924361,44.1223212 44.4875469,44.2793763 44.2997451,44.5263183 L42.2818756,47.2970072 C43.0340814,47.2802151 43.8252461,47.386894 44.5055279,47.7543437 C44.6603644,47.8363284 44.6993233,47.9607872 44.7123095,48.0803071 L44.7123095,48.9732493 C44.7123095,49.0947447 44.5724572,49.2359955 44.4246133,49.1638885 C43.223881,48.5583868 41.6345591,48.4941818 40.3079597,49.1688273 C40.174101,49.2409344 40.0302529,49.0996835 40.0302529,48.9772003 L40.0302529,48.1296955 C40.0302529,47.9933835 40.0342487,47.7632336 40.1760989,47.5548146 L42.5146299,44.3327158 L40.4787794,44.3327158 C40.3539112,44.3327158 40.2540167,44.2477677 40.2540167,44.1223212 Z M42.8033251,50.5665188 C42.5176267,50.2188246 40.9203132,50.4015616 40.2020715,50.4835463 C39.9862993,50.5092283 39.9523352,50.327479 40.1491274,50.1951181 C41.4217837,49.3327968 43.5065826,49.5836898 43.7523231,49.8691547 C43.9950668,50.161534 43.6883906,52.1706539 42.493652,53.1307643 C42.3098461,53.2779417 42.1340317,53.1979325 42.2189421,53.0053177 C42.4836626,52.3593176 43.0880245,50.9171764 42.8033251,50.5665188 Z M41.8753049,51.5819442 C39.6496547,53.1623728 36.4250593,54 33.6469924,54 C29.7541026,54 26.2468056,52.617125 23.5936069,50.3156258 C23.3868252,50.1338765 23.572629,49.8859468 23.8213664,50.0281854 C26.6853426,51.6283693 30.2246058,52.5934185 33.8797467,52.5934185 C36.3461426,52.5934185 39.0572802,52.1015101 41.5526456,51.0831215 C41.92725,50.931993 42.2459136,51.3201857 41.8753049,51.5819442 Z M19.7231761,31.9361191 L19.7231761,19.1613171 L23.9656968,19.1613171 L23.9656968,31.7800518 C23.9656968,34.8441078 26.5259936,35.6343221 28.0334021,35.6343221 C31.2450112,35.6343221 32.2949027,33.7634897 32.2949027,32.6937371 L32.2949027,19.1613171 L36.5374234,19.1613171 L36.5374234,38.9897695 L34.0690296,38.9897695 L32.4497392,36.7781573 C31.2929606,38.1511546 29.4029561,39.4313018 26.5879282,39.4313018 C22.5392029,39.4313018 19.7231761,36.7406221 19.7231761,31.9361191 Z M67.903307,12.0928502 L72.0449343,12.0928502 L72.0449343,21.0924033 C72.9859407,19.9100452 74.8319917,18.6901518 77.5421303,18.6901518 C81.4579959,18.6901518 84.6206567,20.9778223 84.6206567,25.9729644 L84.6206567,32.1504647 C84.6206567,37.1456069 81.4200359,39.4332773 77.692971,39.4332773 C74.9069126,39.4332773 72.9859407,38.1373259 71.8571325,36.7643285 L70.3127631,38.9759408 L67.903307,38.9759408 L67.903307,12.0928502 Z M76.5012293,35.6204933 C78.496123,35.6204933 80.4790295,34.2099608 80.4790295,31.8452445 L80.4790295,26.2781847 C80.4790295,23.9144562 78.496123,22.5029359 76.5391892,22.5029359 C73.7521318,22.5029359 72.0449343,24.0892911 72.0449343,26.2534905 L72.0449343,31.6872016 L72.0459332,31.6872016 C71.9810018,34.3699792 73.8789978,35.6204933 76.5012293,35.6204933 Z M52.0370588,12.1066789 L56.178686,12.1066789 L56.178686,38.9897695 L53.7692299,38.9897695 L52.2258594,36.779145 C51.0960523,38.1511546 49.1760794,39.4480938 46.389022,39.4480938 C42.6619571,39.4480938 39.4613363,37.1594357 39.4613363,32.1642935 L39.4613363,25.9877809 C39.4613363,20.991651 42.6239972,18.7039806 46.5398628,18.7039806 C49.2510003,18.7039806 51.0960523,19.9238739 52.0370588,21.1062321 L52.0370588,12.1066789 Z M43.6029636,31.860061 C43.6029636,34.2237895 45.58587,35.6343221 47.5817627,35.6343221 C50.2029952,35.6343221 52.1019902,34.3838079 52.0360598,31.7020181 L52.0370588,31.7020181 L52.0370588,26.2673193 C52.0370588,24.1041076 50.3308602,22.5167646 47.5438028,22.5167646 C45.58587,22.5167646 43.6029636,23.9282849 43.6029636,26.2920135 L43.6029636,31.860061 Z M87.4986181,12.1076667 L91.7411388,12.1076667 L91.7411388,38.9907573 L87.4986181,38.9907573 L87.4986181,12.1076667 Z M59.976676,19.1613171 L64.2191967,19.1613171 L64.2191967,38.9897695 L59.976676,38.9897695 L59.976676,19.1613171 Z M62.0974369,16.7719066 C60.7648439,16.7719066 59.6839851,15.7041295 59.6839851,14.3864472 C59.6839851,13.0687648 60.7648439,12 62.0974369,12 C63.43003,12 64.5098898,13.0687648 64.5098898,14.3864472 C64.5098898,15.7041295 63.43003,16.7719066 62.0974369,16.7719066 Z M103.413815,35.6343221 C105.601505,35.6343221 107.116905,34.8786796 108.21075,33.3594926 L111.289499,35.2392149 C110.115739,37.894335 107.316694,39.4480938 103.413815,39.4480938 C98.2083107,39.4480938 94.8528534,36.7406221 94.8528534,32.1642935 L94.8528534,26.0638391 C94.8528534,21.5635686 98.2083107,18.7039806 103.413815,18.7039806 C108.426522,18.7039806 111.666102,21.4114524 111.666102,25.9867932 L111.666102,30.4485407 L99.0943752,30.4485407 L99.0943752,32.0882354 C99.0943752,34.1477314 100.520869,35.6343221 103.413815,35.6343221 Z M99.0943752,25.9867932 L99.0943752,27.2452095 L107.42458,27.2452095 L107.42458,25.9867932 C107.42458,23.9282849 105.997087,22.5167646 103.258978,22.5167646 C100.520869,22.5167646 99.0943752,23.9282849 99.0943752,25.9867932 Z M8.79471445,18.7039806 C14.1930149,18.7039806 16.8162452,21.5260334 16.8162452,25.4158633 L16.8162452,38.9897695 L14.3478514,38.9897695 L12.7275621,36.7781573 C11.5707835,38.1511546 9.45002257,39.4480938 6.59603584,39.4480938 C2.97186228,39.4480938 0,37.5031789 0,33.613349 C0,28.1095064 6.4232183,27.2373073 9.01747926,27.2373073 L12.5737245,27.2323685 L12.5737245,25.6825607 C12.5737245,23.7376457 11.377987,22.5167646 8.79471445,22.5167646 C6.99561396,22.5167646 5.67301038,22.6728319 4.28847219,24.8528357 L0.973971671,22.813095 C2.0108769,20.344663 4.6790598,18.7039806 8.79471445,18.7039806 Z M12.5737245,32.6413854 L12.5737245,30.1690024 L10.7476525,30.1690024 C8.35318063,30.2618526 4.45229922,30.7784552 4.45229922,33.1560124 C4.45229922,34.8342301 5.91675303,35.6343221 7.9226352,35.6343221 C9.84360702,35.6343221 11.4589016,34.7660741 12.1062181,33.8573276 C12.5347657,33.3278841 12.5407593,32.9436424 12.5737245,32.6413854 Z" id="shape" fill="#FFFFFF"></path>
                <path d="M121.5,19.8607807 L140,8.24222398 L140,11.38043 L121.5,23 L103,11.38043 L103,8.24222398 L121.5,19.8607807 Z M121.494959,5.33403824 C125.661744,5.33403824 129.332507,7.47008547 131.481935,10.7126619 L131.47891,10.7126619 L128.755831,12.4241343 C124.659619,6.94114019 117.165858,5.99167328 111.974768,10.3164596 C111.822534,10.4431227 111.675341,10.5738391 111.530163,10.7065821 L111.513025,10.7045555 C113.662452,7.46704555 117.331199,5.33403824 121.494959,5.33403824 Z M121.494959,10.6680765 C123.763351,10.6680765 125.76861,11.8050048 126.976403,13.5418099 L126.975395,13.5418099 L124.348093,15.1924839 C123.123161,13.4972244 121.338692,12.4281875 119.35158,12.4281875 C118.142779,12.4281875 117.010599,12.8243898 116.031662,13.5144506 C117.24248,11.7928452 119.237657,10.6680765 121.494959,10.6680765 Z M108.990572,5.98255353 C108.325177,6.51149881 107.583161,7.27046436 107.010518,7.87642083 C110.126785,3.10679355 115.51346,-1.77635684e-15 121.493951,-1.77635684e-15 C127.560136,-1.77635684e-15 132.896403,3.1371927 135.98545,7.88756719 L135.98545,7.88655388 L133.165586,9.65173143 L133.127275,9.59295973 C127.38673,1.54529033 116.60733,-0.0780244956 108.990572,5.98255353 Z" id="shape" fill="#F7991C"></path>
            </g>
        </g>
    </g>
</svg>